<svg width="156" height="56" viewBox="0 0 156 56" fill="none" xmlns="http://www.w3.org/2000/svg">
<path d="M37.3334 7H2.33337V37.3333H37.3334V7Z" stroke="#F2994A" stroke-width="4.66667" stroke-linecap="round" stroke-linejoin="round"/>
<path d="M37.3334 18.6667H46.6667L53.6667 25.6667V37.3334H37.3334V18.6667Z" stroke="#F2994A" stroke-width="4.66667" stroke-linecap="round" stroke-linejoin="round"/>
<path d="M12.8333 48.9999C16.055 48.9999 18.6667 46.3882 18.6667 43.1666C18.6667 39.9449 16.055 37.3333 12.8333 37.3333C9.61167 37.3333 7 39.9449 7 43.1666C7 46.3882 9.61167 48.9999 12.8333 48.9999Z" stroke="#F2994A" stroke-width="4.66667" stroke-linecap="round" stroke-linejoin="round"/>
<path d="M43.1667 48.9999C46.3884 48.9999 49 46.3882 49 43.1666C49 39.9449 46.3884 37.3333 43.1667 37.3333C39.945 37.3333 37.3334 39.9449 37.3334 43.1666C37.3334 46.3882 39.945 48.9999 43.1667 48.9999Z" stroke="#F2994A" stroke-width="4.66667" stroke-linecap="round" stroke-linejoin="round"/>
<path d="M63.28 35H61.44V20.68H69.8V22.44H63.28V27.14H69.16V28.86H63.28V35ZM71.8238 26.38C72.7704 25.38 73.9771 24.88 75.4438 24.88C76.9104 24.88 78.1171 25.38 79.0638 26.38C80.0104 27.3667 80.4838 28.6067 80.4838 30.1C80.4838 31.5933 80.0104 32.84 79.0638 33.84C78.1171 34.8267 76.9104 35.32 75.4438 35.32C73.9771 35.32 72.7704 34.8267 71.8238 33.84C70.8771 32.84 70.4038 31.5933 70.4038 30.1C70.4038 28.6067 70.8771 27.3667 71.8238 26.38ZM73.1838 32.68C73.8238 33.32 74.5771 33.64 75.4438 33.64C76.3104 33.64 77.0571 33.32 77.6838 32.68C78.3238 32.0267 78.6438 31.1667 78.6438 30.1C78.6438 29.0333 78.3238 28.18 77.6838 27.54C77.0571 26.8867 76.3104 26.56 75.4438 26.56C74.5771 26.56 73.8238 26.8867 73.1838 27.54C72.5571 28.18 72.2438 29.0333 72.2438 30.1C72.2438 31.1667 72.5571 32.0267 73.1838 32.68ZM83.0152 26.38C83.9618 25.38 85.1685 24.88 86.6352 24.88C88.1018 24.88 89.3085 25.38 90.2552 26.38C91.2018 27.3667 91.6752 28.6067 91.6752 30.1C91.6752 31.5933 91.2018 32.84 90.2552 33.84C89.3085 34.8267 88.1018 35.32 86.6352 35.32C85.1685 35.32 83.9618 34.8267 83.0152 33.84C82.0685 32.84 81.5952 31.5933 81.5952 30.1C81.5952 28.6067 82.0685 27.3667 83.0152 26.38ZM84.3752 32.68C85.0152 33.32 85.7685 33.64 86.6352 33.64C87.5018 33.64 88.2485 33.32 88.8752 32.68C89.5152 32.0267 89.8352 31.1667 89.8352 30.1C89.8352 29.0333 89.5152 28.18 88.8752 27.54C88.2485 26.8867 87.5018 26.56 86.6352 26.56C85.7685 26.56 85.0152 26.8867 84.3752 27.54C83.7485 28.18 83.4352 29.0333 83.4352 30.1C83.4352 31.1667 83.7485 32.0267 84.3752 32.68ZM97.4466 35.32C96.1799 35.32 95.0866 34.82 94.1666 33.82C93.2466 32.82 92.7866 31.58 92.7866 30.1C92.7866 28.62 93.2466 27.38 94.1666 26.38C95.0866 25.38 96.1799 24.88 97.4466 24.88C98.1932 24.88 98.8599 25.04 99.4466 25.36C100.047 25.68 100.493 26.08 100.787 26.56H100.867L100.787 25.2V20.68H102.627V35H100.867V33.64H100.787C100.493 34.12 100.047 34.52 99.4466 34.84C98.8599 35.16 98.1932 35.32 97.4466 35.32ZM97.7466 33.64C98.6132 33.64 99.3466 33.32 99.9466 32.68C100.56 32.04 100.867 31.18 100.867 30.1C100.867 29.02 100.56 28.16 99.9466 27.52C99.3466 26.88 98.6132 26.56 97.7466 26.56C96.8932 26.56 96.1599 26.8867 95.5466 27.54C94.9332 28.18 94.6266 29.0333 94.6266 30.1C94.6266 31.1667 94.9332 32.0267 95.5466 32.68C96.1599 33.32 96.8932 33.64 97.7466 33.64Z" fill="black"/>
<path d="M113.664 35H111.824V22.44H107.824V20.68H117.664V22.44H113.664V35ZM119.913 35H118.073V25.2H119.833V26.8H119.913C120.1 26.2667 120.48 25.8267 121.053 25.48C121.64 25.1333 122.206 24.96 122.753 24.96C123.3 24.96 123.76 25.04 124.133 25.2L123.433 26.92C123.193 26.8267 122.866 26.78 122.453 26.78C121.786 26.78 121.193 27.0467 120.673 27.58C120.166 28.1 119.913 28.7867 119.913 29.64V35ZM133.939 35H132.179V33.64H132.099C131.819 34.1067 131.392 34.5067 130.819 34.84C130.245 35.16 129.639 35.32 128.999 35.32C127.772 35.32 126.839 34.9467 126.199 34.2C125.572 33.4533 125.259 32.4533 125.259 31.2V25.2H127.099V30.9C127.099 32.7267 127.905 33.64 129.519 33.64C130.279 33.64 130.899 33.3333 131.379 32.72C131.859 32.1067 132.099 31.4 132.099 30.6V25.2H133.939V35ZM140.561 35.32C139.094 35.32 137.888 34.8267 136.941 33.84C135.994 32.84 135.521 31.5933 135.521 30.1C135.521 28.6067 135.994 27.3667 136.941 26.38C137.888 25.38 139.094 24.88 140.561 24.88C141.654 24.88 142.561 25.1467 143.281 25.68C144.001 26.2133 144.528 26.8867 144.861 27.7L143.181 28.4C142.674 27.1733 141.761 26.56 140.441 26.56C139.628 26.56 138.908 26.8933 138.281 27.56C137.668 28.2267 137.361 29.0733 137.361 30.1C137.361 31.1267 137.668 31.9733 138.281 32.64C138.908 33.3067 139.628 33.64 140.441 33.64C141.814 33.64 142.761 33.0267 143.281 31.8L144.921 32.5C144.588 33.3 144.048 33.9733 143.301 34.52C142.568 35.0533 141.654 35.32 140.561 35.32ZM148.37 20.68V29.5L152.61 25.2H154.97V25.28L151.15 29.1L155.15 34.92V35H152.93L149.85 30.38L148.37 31.86V35H146.53V20.68H148.37Z" fill="#F2994A"/>
</svg>
